<svg xmlns="http://www.w3.org/2000/svg" preserveAspectRatio="xMaxYMax slice" viewBox="0 0 800 800"><g transform="scale(.77295)"><circle cx="103.5" cy="34.5" r="11.3" fill="#fefdfc"/><circle cx="172.5" cy="34.5" r="15.7" fill="#fefdfd"/><circle cx="310.5" cy="34.5" r="24.6" fill="#fbf8f6"/><circle cx="517.5" cy="34.5" r="34.5" fill="#fbf9f7"/><circle cx="586.5" cy="34.5" r="34.5" fill="#ebdcd4"/><circle cx="655.5" cy="34.5" r="33.4" fill="#f5eee9"/><circle cx="724.5" cy="34.5" r="29" fill="#f7f2ee"/><circle cx="793.5" cy="34.5" r="24.6" fill="#f3ebe5"/><circle cx="1000.5" cy="34.5" r="11.3" fill="#f9f4f1"/><circle cx="172.5" cy="103.5" r="15.7" fill="#f4ece7"/><circle cx="298.2" cy="91.2" r="12.3" fill="#eee1d9"/><circle cx="322.8" cy="91.2" r="12.3" fill="#ecded5"/><circle cx="322.8" cy="115.8" r="12.3" fill="#f9f4f2"/><circle cx="379.5" cy="103.5" r="29" fill="#f4ece7"/><circle cx="431.8" cy="86.8" r="16.7" fill="#ecddd4"/><circle cx="465.2" cy="86.8" r="16.7" fill="#f1e7e1"/><circle cx="431.8" cy="120.2" r="16.7" fill="#fcfaf8"/><circle cx="465.2" cy="120.2" r="16.7" fill="#eee1d9"/><circle cx="517.5" cy="103.5" r="34.5" fill="#f5eeea"/><circle cx="586.5" cy="103.5" r="34.5" fill="#f6eeea"/><circle cx="655.5" cy="103.5" r="33.4" fill="#ecddd5"/><circle cx="931.5" cy="103.5" r="15.7" fill="#fbf8f6"/><circle cx="1000.5" cy="103.5" r="11.3" fill="#fefdfd"/><circle cx="379.5" cy="172.5" r="29" fill="#f8f3f0"/><circle cx="448.5" cy="172.5" r="33.4" fill="#fcfaf8"/><circle cx="517.5" cy="172.5" r="34.5" fill="#f1e7e1"/><circle cx="586.5" cy="172.5" r="34.5" fill="#fbf7f5"/><circle cx="655.5" cy="172.5" r="33.4" fill="#ede0d8"/><circle cx="724.5" cy="172.5" r="29" fill="#f2e9e3"/><circle cx="805.8" cy="184.8" r="12.3" fill="#f4ece7"/><circle cx="852.4" cy="162.4" r="10.1" fill="#f6efeb"/><circle cx="872.6" cy="182.6" r="10.1" fill="#f9f5f2"/><circle cx="241.5" cy="241.5" r="20.1" fill="#eee2da"/><circle cx="298.2" cy="229.2" r="12.3" fill="#f7f2ee"/><circle cx="298.2" cy="253.8" r="12.3" fill="#faf5f3"/><circle cx="322.8" cy="253.8" r="12.3" fill="#f1e7e1"/><circle cx="379.5" cy="241.5" r="29" fill="#f0e4dd"/><circle cx="448.5" cy="241.5" r="33.4" fill="#f5eeea"/><circle cx="517.5" cy="241.5" r="34.5" fill="#fefdfc"/><circle cx="569.3" cy="224.3" r="17.3" fill="#f9f4f1"/><circle cx="603.8" cy="224.3" r="17.3" fill="#f7f2ee"/><circle cx="569.3" cy="258.8" r="17.3" fill="#fefcfc"/><circle cx="603.8" cy="258.8" r="17.3" fill="#faf6f4"/><circle cx="655.5" cy="241.5" r="33.4" fill="#f0e5de"/><circle cx="724.5" cy="241.5" r="29" fill="#f4ece7"/><circle cx="793.5" cy="241.5" r="24.6" fill="#fff"/><circle cx="172.5" cy="310.5" r="15.7" fill="#efe2db"/><circle cx="310.5" cy="310.5" r="24.6" fill="#fdfcfb"/><circle cx="431.8" cy="293.8" r="16.7" fill="#f3eae4"/><circle cx="465.2" cy="293.8" r="16.7" fill="#fdfcfb"/><circle cx="431.8" cy="327.2" r="16.7" fill="#f8f2ef"/><circle cx="465.2" cy="327.2" r="16.7" fill="#ede0d8"/><circle cx="500.3" cy="293.3" r="17.3" fill="#f0e4dd"/><circle cx="534.8" cy="293.3" r="17.3" fill="#fdfbfa"/><circle cx="500.3" cy="327.8" r="17.3" fill="#f8f3f0"/><circle cx="534.8" cy="327.8" r="17.3" fill="#f4ebe6"/><circle cx="586.5" cy="310.5" r="34.5" fill="#ede0d8"/><circle cx="655.5" cy="310.5" r="33.4" fill="#f8f3f0"/><circle cx="724.5" cy="310.5" r="29" fill="#f9f4f1"/><circle cx="781.2" cy="298.2" r="12.3" fill="#f4ebe6"/><circle cx="805.8" cy="298.2" r="12.3" fill="#fcfaf8"/><circle cx="781.2" cy="322.8" r="12.3" fill="#fbf7f5"/><circle cx="241.5" cy="379.5" r="20.1" fill="#f7f1ee"/><circle cx="448.5" cy="379.5" r="33.4" fill="#f0e5df"/><circle cx="517.5" cy="379.5" r="34.5" fill="#ecded6"/><circle cx="586.5" cy="379.5" r="34.5" fill="#ede0d8"/><circle cx="655.5" cy="379.5" r="33.4" fill="#eee1d9"/><circle cx="710" cy="365" r="14.5" fill="#fdfbfa"/><circle cx="739" cy="365" r="14.5" fill="#f8f3ef"/><circle cx="710" cy="394" r="14.5" fill="#f5eee9"/><circle cx="739" cy="394" r="14.5" fill="#fefdfc"/><circle cx="781.2" cy="367.2" r="12.3" fill="#fcf9f8"/><circle cx="805.8" cy="367.2" r="12.3" fill="#ede0d8"/><circle cx="939.4" cy="371.6" r="7.9" fill="#fefefd"/><circle cx="923.6" cy="387.4" r="7.9" fill="#f9f4f2"/><circle cx="310.5" cy="448.5" r="24.6" fill="#ede0d8"/><circle cx="431.8" cy="431.8" r="16.7" fill="#f2e8e2"/><circle cx="465.2" cy="431.8" r="16.7" fill="#fdfbfa"/><circle cx="431.8" cy="465.2" r="16.7" fill="#fff"/><circle cx="465.2" cy="465.2" r="16.7" fill="#ebdcd3"/><circle cx="517.5" cy="448.5" r="34.5" fill="#f5eee9"/><circle cx="586.5" cy="448.5" r="34.5" fill="#f8f2ef"/><circle cx="655.5" cy="448.5" r="33.4" fill="#f0e5de"/><circle cx="724.5" cy="448.5" r="29" fill="#f3ebe6"/><circle cx="793.5" cy="448.5" r="24.6" fill="#f6efea"/><circle cx="172.5" cy="517.5" r="15.7" fill="#f9f4f1"/><circle cx="310.5" cy="517.5" r="24.6" fill="#fbf9f7"/><circle cx="379.5" cy="517.5" r="29" fill="#efe3dc"/><circle cx="517.5" cy="517.5" r="34.5" fill="#ecded5"/><circle cx="586.5" cy="517.5" r="34.5" fill="#fefdfd"/><circle cx="655.5" cy="517.5" r="33.4" fill="#fff"/><circle cx="724.5" cy="517.5" r="29" fill="#efe3dc"/><circle cx="793.5" cy="517.5" r="24.6" fill="#f9f5f3"/><circle cx="103.5" cy="586.5" r="11.3" fill="#f4ece7"/><circle cx="241.5" cy="586.5" r="20.1" fill="#faf7f4"/><circle cx="379.5" cy="586.5" r="29" fill="#ecddd4"/><circle cx="448.5" cy="586.5" r="33.4" fill="#fcfaf8"/><circle cx="500.3" cy="569.3" r="17.3" fill="#fbf8f6"/><circle cx="534.8" cy="569.3" r="17.3" fill="#f8f3f0"/><circle cx="500.3" cy="603.8" r="17.3" fill="#f0e5de"/><circle cx="534.8" cy="603.8" r="17.3" fill="#f5ede9"/><circle cx="586.5" cy="586.5" r="34.5" fill="#ecded6"/><circle cx="638.8" cy="569.8" r="16.7" fill="#f1e6df"/><circle cx="672.2" cy="569.8" r="16.7" fill="#ecded6"/><circle cx="638.8" cy="603.2" r="16.7" fill="#f7f2ee"/><circle cx="672.2" cy="603.2" r="16.7" fill="#fefefe"/><circle cx="724.5" cy="586.5" r="29" fill="#fcfaf8"/><circle cx="781.2" cy="574.2" r="12.3" fill="#f4ebe6"/><circle cx="805.8" cy="574.2" r="12.3" fill="#f8f4f1"/><circle cx="781.2" cy="598.8" r="12.3" fill="#ecded5"/><circle cx="862.5" cy="586.5" r="20.1" fill="#f5ede9"/><circle cx="923.6" cy="578.6" r="7.9" fill="#f1e7e1"/><circle cx="923.6" cy="594.4" r="7.9" fill="#f9f5f3"/><circle cx="939.4" cy="594.4" r="7.9" fill="#f7f1ee"/><circle cx="1000.5" cy="586.5" r="11.3" fill="#ebdcd3"/><circle cx="448.5" cy="655.5" r="33.4" fill="#fbf7f5"/><circle cx="517.5" cy="655.5" r="34.5" fill="#f4ebe6"/><circle cx="586.5" cy="655.5" r="34.5" fill="#f1e7e1"/><circle cx="655.5" cy="655.5" r="33.4" fill="#f6efeb"/><circle cx="724.5" cy="655.5" r="29" fill="#efe2db"/><circle cx="793.5" cy="655.5" r="24.6" fill="#f8f3f0"/><circle cx="872.6" cy="645.4" r="10.1" fill="#efe3dc"/><circle cx="852.4" cy="665.6" r="10.1" fill="#f2e8e2"/><circle cx="241.5" cy="724.5" r="20.1" fill="#f1e6e0"/><circle cx="298.2" cy="712.2" r="12.3" fill="#f4ebe6"/><circle cx="322.8" cy="712.2" r="12.3" fill="#f1e7e1"/><circle cx="322.8" cy="736.8" r="12.3" fill="#f1e6e0"/><circle cx="379.5" cy="724.5" r="29" fill="#f4ece7"/><circle cx="517.5" cy="724.5" r="34.5" fill="#f5eeea"/><circle cx="569.3" cy="707.3" r="17.3" fill="#f2e8e2"/><circle cx="603.8" cy="707.3" r="17.3" fill="#fefefe"/><circle cx="569.3" cy="741.8" r="17.3" fill="#fdfbfa"/><circle cx="603.8" cy="741.8" r="17.3" fill="#eee1da"/><circle cx="655.5" cy="724.5" r="33.4" fill="#f2e8e2"/><circle cx="724.5" cy="724.5" r="29" fill="#fcf9f8"/><circle cx="923.6" cy="732.4" r="7.9" fill="#f9f4f1"/><circle cx="939.4" cy="732.4" r="7.9" fill="#efe3dc"/><circle cx="241.5" cy="793.5" r="20.1" fill="#eee2da"/><circle cx="298.2" cy="781.2" r="12.3" fill="#fffffe"/><circle cx="322.8" cy="781.2" r="12.3" fill="#f0e4dd"/><circle cx="298.2" cy="805.8" r="12.3" fill="#ecddd4"/><circle cx="322.8" cy="805.8" r="12.3" fill="#f9f4f2"/><circle cx="379.5" cy="793.5" r="29" fill="#f6f0ec"/><circle cx="448.5" cy="793.5" r="33.4" fill="#ede0d8"/><circle cx="517.5" cy="793.5" r="34.5" fill="#f2e8e2"/><circle cx="569.3" cy="776.3" r="17.3" fill="#f1e6df"/><circle cx="603.8" cy="776.3" r="17.3" fill="#f9f4f2"/><circle cx="569.3" cy="810.8" r="17.3" fill="#faf7f5"/><circle cx="603.8" cy="810.8" r="17.3" fill="#faf6f3"/><circle cx="638.8" cy="776.8" r="16.7" fill="#f7f1ed"/><circle cx="672.2" cy="776.8" r="16.7" fill="#f5ede9"/><circle cx="638.8" cy="810.2" r="16.7" fill="#fdfcfc"/><circle cx="672.2" cy="810.2" r="16.7" fill="#fefdfc"/><circle cx="781.2" cy="781.2" r="12.3" fill="#eee2da"/><circle cx="805.8" cy="781.2" r="12.3" fill="#efe3db"/><circle cx="781.2" cy="805.8" r="12.3" fill="#faf6f4"/><circle cx="862.5" cy="793.5" r="20.1" fill="#fbf8f6"/><circle cx="310.5" cy="862.5" r="24.6" fill="#f2e9e3"/><circle cx="379.5" cy="862.5" r="29" fill="#efe3dc"/><circle cx="431.8" cy="845.8" r="16.7" fill="#ebdcd4"/><circle cx="465.2" cy="845.8" r="16.7" fill="#f5eee9"/><circle cx="431.8" cy="879.2" r="16.7" fill="#f4ebe6"/><circle cx="465.2" cy="879.2" r="16.7" fill="#f7f0ed"/><circle cx="500.3" cy="845.3" r="17.3" fill="#f9f5f3"/><circle cx="534.8" cy="845.3" r="17.3" fill="#f4ece7"/><circle cx="500.3" cy="879.8" r="17.3" fill="#f9f5f3"/><circle cx="534.8" cy="879.8" r="17.3" fill="#ebdcd4"/><circle cx="569.3" cy="845.3" r="17.3" fill="#f5ede8"/><circle cx="603.8" cy="845.3" r="17.3" fill="#f6efeb"/><circle cx="569.3" cy="879.8" r="17.3" fill="#f8f2ef"/><circle cx="603.8" cy="879.8" r="17.3" fill="#f2e8e2"/><circle cx="655.5" cy="862.5" r="33.4" fill="#eddfd7"/><circle cx="793.5" cy="862.5" r="24.6" fill="#f8f3f0"/><circle cx="862.5" cy="862.5" r="20.1" fill="#fcf9f8"/><circle cx="310.5" cy="931.5" r="24.6" fill="#f7f1ed"/><circle cx="365" cy="917" r="14.5" fill="#f6efea"/><circle cx="394" cy="917" r="14.5" fill="#f4ebe6"/><circle cx="365" cy="946" r="14.5" fill="#f2e8e3"/><circle cx="431.8" cy="914.8" r="16.7" fill="#f6efeb"/><circle cx="465.2" cy="914.8" r="16.7" fill="#f2e8e2"/><circle cx="431.8" cy="948.2" r="16.7" fill="#f4ece7"/><circle cx="465.2" cy="948.2" r="16.7" fill="#f8f3f1"/><circle cx="517.5" cy="931.5" r="34.5" fill="#ecddd5"/><circle cx="586.5" cy="931.5" r="34.5" fill="#f4ece7"/><circle cx="655.5" cy="931.5" r="33.4" fill="#fbf7f6"/><circle cx="724.5" cy="931.5" r="29" fill="#faf6f4"/><circle cx="793.5" cy="931.5" r="24.6" fill="#f4ece8"/><circle cx="852.4" cy="941.6" r="10.1" fill="#f9f5f2"/><circle cx="923.6" cy="923.6" r="7.9" fill="#fbf9f7"/><circle cx="939.4" cy="923.6" r="7.9" fill="#f6f0ec"/><circle cx="923.6" cy="939.4" r="7.9" fill="#f8f3f0"/><circle cx="241.5" cy="1000.5" r="20.1" fill="#fffefe"/><circle cx="448.5" cy="1000.5" r="33.4" fill="#f3eae5"/><circle cx="517.5" cy="1000.5" r="34.5" fill="#ede0d8"/><circle cx="586.5" cy="1000.5" r="34.5" fill="#eee2da"/><circle cx="655.5" cy="1000.5" r="33.4" fill="#faf6f3"/><circle cx="724.5" cy="1000.5" r="29" fill="#fbf7f6"/><circle cx="862.5" cy="1000.5" r="20.1" fill="#fcfaf8"/><circle cx="1000.5" cy="1000.5" r="11.3" fill="#efe4dc"/></g></svg>