<svg xmlns="http://www.w3.org/2000/svg" width="880" height="880">
    <style>
        path:nth-child(2n+2) {
            fill: #fefdfc
        }

        path:nth-child(2n+1) {
            fill: #f8f3f0
        }

        path:nth-child(4n+1) {
            fill: #ede0d8
        }

        path:nth-child(5n+2) {
            fill: #ebdcd4
        }

        path:nth-child(6n+1) {
            fill: #f7f2ee
        }

        path:nth-child(7n+2) {
            fill: #f5eee9
        }

        path:nth-child(8n+1) {
            fill: #f4ece7
        }

        path:nth-child(9n+2) {
            fill: #f9f4f1
        }

        path:nth-child(10n+1) {
            fill: #eee1d9
        }

        path:nth-child(11n+2) {
            fill: #ecded5
        }

        path:nth-child(12n+1) {
            fill: #f0e4dd
        }

        path:nth-child(13n+2) {
            fill: #f1e7e1
        }

        path:nth-child(14n+1) {
            fill: #fcfaf8
        }

        path:nth-child(15n+2) {
            fill: #faf6f4
        }

        path:nth-child(16n+1) {
            fill: #efe2db
        }
    </style>
    <path d="M432,423L372,358L368,442Z" />
    <path d="M432,423L448,354L372,358Z" />
    <path d="M448,354L374,286L372,358Z" />
    <path d="M269,370L284,449L368,442Z" />
    <path d="M269,370L368,442L372,358Z" />
    <path d="M368,442L433,532L432,423Z" />
    <path d="M292,515L361,519L368,442Z" />
    <path d="M280,286L269,370L372,358Z" />
    <path d="M432,423L527,377L448,354Z" />
    <path d="M433,532L512,444L432,423Z" />
    <path d="M448,354L443,278L374,286Z" />
    <path d="M538,261L443,278L448,354Z" />
    <path d="M361,519L433,532L368,442Z" />
    <path d="M512,444L527,377L432,423Z" />
    <path d="M361,519L349,586L433,532Z" />
    <path d="M284,449L292,515L368,442Z" />
    <path d="M217,518L292,515L284,449Z" />
    <path d="M374,286L280,286L372,358Z" />
    <path d="M369,206L280,286L374,286Z" />
    <path d="M269,370L215,425L284,449Z" />
    <path d="M205,343L215,425L269,370Z" />
    <path d="M292,515L349,586L361,519Z" />
    <path d="M282,617L349,586L292,515Z" />
    <path d="M433,532L524,538L512,444Z" />
    <path d="M512,444L584,424L527,377Z" />
    <path d="M510,582L524,538L433,532Z" />
    <path d="M280,286L205,343L269,370Z" />
    <path d="M524,538L584,424L512,444Z" />
    <path d="M527,377L538,261L448,354Z" />
    <path d="M443,278L369,206L374,286Z" />
    <path d="M280,286L182,285L205,343Z" />
    <path d="M612,340L538,261L527,377Z" />
    <path d="M443,278L453,206L369,206Z" />
    <path d="M538,261L453,206L443,278Z" />
    <path d="M215,425L217,518L284,449Z" />
    <path d="M138,449L217,518L215,425Z" />
    <path d="M524,538L619,539L584,424Z" />
    <path d="M445,614L510,582L433,532Z" />
    <path d="M349,586L445,614L433,532Z" />
    <path d="M584,424L612,340L527,377Z" />
    <path d="M192,207L182,285L280,286Z" />
    <path d="M131,344L138,449L215,425Z" />
    <path d="M217,518L282,617L292,515Z" />
    <path d="M349,586L350,696L445,614Z" />
    <path d="M369,206L271,190L280,286Z" />
    <path d="M357,122L271,190L369,206Z" />
    <path d="M612,340L596,269L538,261Z" />
    <path d="M538,261L536,185L453,206Z" />
    <path d="M131,344L215,425L205,343Z" />
    <path d="M217,518L187,619L282,617Z" />
    <path d="M581,201L536,185L538,261Z" />
    <path d="M457,127L357,122L369,206Z" />
    <path d="M182,285L131,344L205,343Z" />
    <path d="M600,592L619,539L524,538Z" />
    <path d="M584,424L678,451L612,340Z" />
    <path d="M600,592L524,538L510,582Z" />
    <path d="M676,181L581,201L596,269Z" />
    <path d="M596,269L581,201L538,261Z" />
    <path d="M182,285L124,277L131,344Z" />
    <path d="M271,190L192,207L280,286Z" />
    <path d="M457,127L369,206L453,206Z" />
    <path d="M271,190L187,139L192,207Z" />
    <path d="M138,449L138,526L217,518Z" />
    <path d="M59,454L138,526L138,449Z" />
    <path d="M536,185L457,127L453,206Z" />
    <path d="M539,122L457,127L536,185Z" />
    <path d="M510,696L600,592L510,582Z" />
    <path d="M282,617L294,670L349,586Z" />
    <path d="M445,614L510,696L510,582Z" />
    <path d="M219,698L294,670L282,617Z" />
    <path d="M619,539L678,451L584,424Z" />
    <path d="M612,340L664,297L596,269Z" />
    <path d="M670,521L678,451L619,539Z" />
    <path d="M691,343L664,297L612,340Z" />
    <path d="M192,207L124,277L182,285Z" />
    <path d="M42,370L59,454L138,449Z" />
    <path d="M294,670L350,696L349,586Z" />
    <path d="M138,526L187,619L217,518Z" />
    <path d="M350,696L447,698L445,614Z" />
    <path d="M669,609L670,521L619,539Z" />
    <path d="M752,354L691,343L678,451Z" />
    <path d="M678,451L691,343L612,340Z" />
    <path d="M357,122L290,112L271,190Z" />
    <path d="M288,49L290,112L357,122Z" />
    <path d="M581,201L539,122L536,185Z" />
    <path d="M423,32L377,37L357,122Z" />
    <path d="M613,107L539,122L581,201Z" />
    <path d="M447,698L510,696L445,614Z" />
    <path d="M600,592L669,609L619,539Z" />
    <path d="M290,112L187,139L271,190Z" />
    <path d="M192,207L120,190L124,277Z" />
    <path d="M42,370L138,449L131,344Z" />
    <path d="M138,526L121,610L187,619Z" />
    <path d="M29,596L121,610L138,526Z" />
    <path d="M187,619L219,698L282,617Z" />
    <path d="M289,764L354,757L350,696Z" />
    <path d="M117,697L219,698L187,619Z" />
    <path d="M354,757L454,746L447,698Z" />
    <path d="M56,278L42,370L131,344Z" />
    <path d="M187,139L120,190L192,207Z" />
    <path d="M670,667L669,609L600,592Z" />
    <path d="M769,442L752,354L678,451Z" />
    <path d="M56,278L131,344L124,277Z" />
    <path d="M510,696L593,694L600,592Z" />
    <path d="M447,698L454,746L510,696Z" />
    <path d="M354,757L447,698L350,696Z" />
    <path d="M525,770L593,694L510,696Z" />
    <path d="M56,200L56,278L124,277Z" />
    <path d="M289,764L350,696L294,670Z" />
    <path d="M751,189L676,181L664,297Z" />
    <path d="M664,297L676,181L596,269Z" />
    <path d="M59,454L41,500L138,526Z" />
    <path d="M-35,426L41,500L59,454Z" />
    <path d="M423,32L457,127L504,27Z" />
    <path d="M423,32L357,122L457,127Z" />
    <path d="M290,112L185,43L187,139Z" />
    <path d="M769,442L678,451L755,528Z" />
    <path d="M691,343L773,294L664,297Z" />
    <path d="M187,139L132,115L120,190Z" />
    <path d="M377,37L288,49L357,122Z" />
    <path d="M676,181L613,107L581,201Z" />
    <path d="M504,27L457,127L539,122Z" />
    <path d="M219,698L289,764L294,670Z" />
    <path d="M209,764L289,764L219,698Z" />
    <path d="M755,528L678,451L670,521Z" />
    <path d="M120,190L56,200L124,277Z" />
    <path d="M185,43L132,115L187,139Z" />
    <path d="M669,609L755,528L670,521Z" />
    <path d="M593,694L670,667L600,592Z" />
    <path d="M673,748L670,667L593,694Z" />
    <path d="M749,614L755,528L669,609Z" />
    <path d="M132,115L56,200L120,190Z" />
    <path d="M-33,340L-35,426L42,370Z" />
    <path d="M592,51L504,27L539,122Z" />
    <path d="M454,746L525,770L510,696Z" />
    <path d="M436,835L525,770L454,746Z" />
    <path d="M436,835L454,746L354,757Z" />
    <path d="M821,273L773,294L851,349Z" />
    <path d="M752,354L773,294L691,343Z" />
    <path d="M691,33L592,51L613,107Z" />
    <path d="M121,610L117,697L187,619Z" />
    <path d="M40,689L117,697L121,610Z" />
    <path d="M613,107L592,51L539,122Z" />
    <path d="M690,110L613,107L676,181Z" />
    <path d="M368,850L436,835L354,757Z" />
    <path d="M117,697L209,764L219,698Z" />
    <path d="M-39,583L29,596L41,500Z" />
    <path d="M41,500L29,596L138,526Z" />
    <path d="M525,770L609,751L593,694Z" />
    <path d="M288,49L185,43L290,112Z" />
    <path d="M-41,200L-24,270L56,200Z" />
    <path d="M190,-32L185,43L288,49Z" />
    <path d="M352,-32L288,49L377,37Z" />
    <path d="M423,-30L377,37L423,32Z" />
    <path d="M841,538L820,420L769,442Z" />
    <path d="M670,667L749,614L669,609Z" />
    <path d="M770,666L749,614L670,667Z" />
    <path d="M751,189L690,110L676,181Z" />
    <path d="M773,294L751,189L664,297Z" />
    <path d="M42,370L-35,426L59,454Z" />
    <path d="M-33,340L42,370L56,278Z" />
    <path d="M-24,270L-33,340L56,278Z" />
    <path d="M769,442L820,420L752,354Z" />
    <path d="M773,294L821,273L751,189Z" />
    <path d="M841,538L769,442L755,528Z" />
    <path d="M504,27L423,-30L423,32Z" />
    <path d="M537,-45L423,-30L504,27Z" />
    <path d="M423,-30L352,-32L377,37Z" />
    <path d="M37,103L56,200L132,115Z" />
    <path d="M56,200L-24,270L56,278Z" />
    <path d="M525,770L607,852L609,751Z" />
    <path d="M368,850L354,757L289,764Z" />
    <path d="M609,751L673,748L593,694Z" />
    <path d="M607,852L673,748L609,751Z" />
    <path d="M851,349L773,294L752,354Z" />
    <path d="M751,189L747,106L690,110Z" />
    <path d="M274,842L368,850L289,764Z" />
    <path d="M209,764L274,842L289,764Z" />
    <path d="M117,697L126,767L209,764Z" />
    <path d="M33,778L126,767L117,697Z" />
    <path d="M29,596L40,689L121,610Z" />
    <path d="M-42,689L40,689L29,596Z" />
    <path d="M205,829L274,842L209,764Z" />
    <path d="M352,-32L292,-45L288,49Z" />
    <path d="M376,-107L292,-45L352,-32Z" />
    <path d="M115,29L37,103L132,115Z" />
    <path d="M115,29L132,115L185,43Z" />
    <path d="M592,51L537,-45L504,27Z" />
    <path d="M690,110L691,33L613,107Z" />
    <path d="M822,119L747,106L751,189Z" />
    <path d="M-35,426L-60,506L41,500Z" />
    <path d="M-111,509L-60,506L-126,452Z" />
    <path d="M-120,373L-35,426L-33,340Z" />
    <path d="M673,748L770,666L670,667Z" />
    <path d="M749,614L841,538L755,528Z" />
    <path d="M122,-27L115,29L185,43Z" />
    <path d="M820,420L851,349L752,354Z" />
    <path d="M924,370L851,349L820,420Z" />
    <path d="M126,767L205,829L209,764Z" />
    <path d="M-60,506L-39,583L41,500Z" />
    <path d="M436,835L527,848L525,770Z" />
    <path d="M428,929L527,848L436,835Z" />
    <path d="M423,-30L376,-107L352,-32Z" />
    <path d="M618,-29L537,-45L592,51Z" />
    <path d="M850,611L841,538L749,614Z" />
    <path d="M747,106L691,33L690,110Z" />
    <path d="M-39,136L-41,200L56,200Z" />
    <path d="M-126,283L-120,373L-33,340Z" />
    <path d="M292,-45L190,-32L288,49Z" />
    <path d="M691,33L618,-29L592,51Z" />
    <path d="M527,848L607,852L525,770Z" />
    <path d="M673,748L774,759L770,666Z" />
    <path d="M608,920L607,852L527,848Z" />
    <path d="M368,850L373,901L436,835Z" />
    <path d="M299,915L373,901L368,850Z" />
    <path d="M299,915L368,850L274,842Z" />
    <path d="M37,103L-39,136L56,200Z" />
    <path d="M-126,283L-33,340L-24,270Z" />
    <path d="M-60,56L-39,136L37,103Z" />
    <path d="M33,38L37,103L115,29Z" />
    <path d="M841,538L904,453L820,420Z" />
    <path d="M770,666L850,611L749,614Z" />
    <path d="M844,667L850,611L770,666Z" />
    <path d="M190,-32L122,-27L185,43Z" />
    <path d="M121,-137L122,-27L190,-32Z" />
    <path d="M537,-45L445,-102L423,-30Z" />
    <path d="M292,-45L272,-135L190,-32Z" />
    <path d="M526,-123L445,-102L537,-45Z" />
    <path d="M821,273L856,197L751,189Z" />
    <path d="M747,106L775,56L691,33Z" />
    <path d="M928,280L856,197L821,273Z" />
    <path d="M928,280L821,273L851,349Z" />
    <path d="M445,-102L376,-107L423,-30Z" />
    <path d="M56,-27L33,38L115,29Z" />
    <path d="M-126,283L-24,270L-41,200Z" />
    <path d="M-60,506L-111,509L-39,583Z" />
    <path d="M-126,452L-60,506L-35,426Z" />
    <path d="M-42,689L33,778L40,689Z" />
    <path d="M856,197L822,119L751,189Z" />
    <path d="M691,33L685,-31L618,-29Z" />
    <path d="M904,500L904,453L841,538Z" />
    <path d="M210,929L299,915L274,842Z" />
    <path d="M126,767L139,852L205,829Z" />
    <path d="M58,848L139,852L126,767Z" />
    <path d="M33,778L117,697L40,689Z" />
    <path d="M822,119L775,56L747,106Z" />
    <path d="M-120,373L-126,452L-35,426Z" />
    <path d="M-42,689L29,596L-39,583Z" />
    <path d="M-126,614L-42,689L-39,583Z" />
    <path d="M210,929L274,842L205,829Z" />
    <path d="M757,-37L685,-31L691,33Z" />
    <path d="M585,-113L526,-123L537,-45Z" />
    <path d="M906,601L904,500L841,538Z" />
    <path d="M685,848L774,759L673,748Z" />
    <path d="M850,611L906,601L841,538Z" />
    <path d="M845,744L844,667L770,666Z" />
    <path d="M354,989L428,929L373,901Z" />
    <path d="M373,901L428,929L436,835Z" />
    <path d="M-120,373L-126,283L-126,452Z" />
    <path d="M-122,187L-126,283L-41,200Z" />
    <path d="M904,453L924,370L820,420Z" />
    <path d="M995,349L924,370L998,428Z" />
    <path d="M675,919L685,848L607,852Z" />
    <path d="M607,852L685,848L673,748Z" />
    <path d="M445,-102L526,-123L376,-107Z" />
    <path d="M585,-113L537,-45L618,-29Z" />
    <path d="M122,-27L56,-27L115,29Z" />
    <path d="M-112,105L-122,187L-39,136Z" />
    <path d="M-39,136L-122,187L-41,200Z" />
    <path d="M121,-137L56,-27L122,-27Z" />
    <path d="M376,-107L272,-135L292,-45Z" />
    <path d="M526,-123L272,-135L376,-107Z" />
    <path d="M667,-126L585,-113L618,-29Z" />
    <path d="M924,370L928,280L851,349Z" />
    <path d="M856,197L914,101L822,119Z" />
    <path d="M428,929L534,934L527,848Z" />
    <path d="M998,428L924,370L904,453Z" />
    <path d="M844,667L906,601L850,611Z" />
    <path d="M939,689L906,601L844,667Z" />
    <path d="M-60,56L37,103L33,38Z" />
    <path d="M139,852L210,929L205,829Z" />
    <path d="M33,778L58,848L126,767Z" />
    <path d="M-31,851L58,848L33,778Z" />
    <path d="M131,915L210,929L139,852Z" />
    <path d="M299,915L354,989L373,901Z" />
    <path d="M428,929L509,1006L534,934Z" />
    <path d="M-42,689L-47,776L33,778Z" />
    <path d="M-111,509L-126,614L-39,583Z" />
    <path d="M-126,452L-126,614L-111,509Z" />
    <path d="M928,280L914,202L856,197Z" />
    <path d="M832,25L757,-37L775,56Z" />
    <path d="M534,934L608,920L527,848Z" />
    <path d="M-57,-53L-60,56L33,38Z" />
    <path d="M774,759L845,744L770,666Z" />
    <path d="M837,824L845,744L774,759Z" />
    <path d="M769,837L774,759L685,848Z" />
    <path d="M685,-31L667,-126L618,-29Z" />
    <path d="M775,56L757,-37L691,33Z" />
    <path d="M832,25L775,56L822,119Z" />
    <path d="M-57,-53L-108,36L-60,56Z" />
    <path d="M272,-135L187,-135L190,-32Z" />
    <path d="M58,848L131,915L139,852Z" />
    <path d="M-126,769L-47,776L-42,689Z" />
    <path d="M58,848L40,930L131,915Z" />
    <path d="M760,937L769,837L685,848Z" />
    <path d="M901,50L832,25L822,119Z" />
    <path d="M-60,56L-112,105L-39,136Z" />
    <path d="M281,997L299,915L210,929Z" />
    <path d="M281,997L354,989L299,915Z" />
    <path d="M596,985L675,919L608,920Z" />
    <path d="M596,985L608,920L534,934Z" />
    <path d="M608,920L675,919L607,852Z" />
    <path d="M746,-114L685,-31L757,-37Z" />
    <path d="M746,-114L667,-126L685,-31Z" />
    <path d="M585,-113L667,-126L526,-123Z" />
    <path d="M526,-123L667,-126L272,-135Z" />
    <path d="M-126,614L-139,682L-42,689Z" />
    <path d="M-126,452L-139,682L-126,614Z" />
    <path d="M-126,283L-139,682L-126,452Z" />
    <path d="M187,-135L121,-137L190,-32Z" />
    <path d="M-60,56L-108,36L-112,105Z" />
    <path d="M272,-135L121,-137L187,-135Z" />
    <path d="M914,202L914,101L856,197Z" />
    <path d="M997,125L914,101L914,202Z" />
    <path d="M202,1009L281,997L210,929Z" />
    <path d="M924,370L995,349L928,280Z" />
    <path d="M928,280L1018,203L914,202Z" />
    <path d="M998,428L904,453L904,500Z" />
    <path d="M1002,539L904,500L906,601Z" />
    <path d="M1002,539L998,428L904,500Z" />
    <path d="M281,997L424,1012L354,989Z" />
    <path d="M354,989L424,1012L428,929Z" />
    <path d="M905,753L939,689L844,667Z" />
    <path d="M769,837L837,824L774,759Z" />
    <path d="M853,907L837,824L769,837Z" />
    <path d="M424,1012L509,1006L428,929Z" />
    <path d="M-116,844L-31,851L-47,776Z" />
    <path d="M-47,776L-31,851L33,778Z" />
    <path d="M134,1004L202,1009L210,929Z" />
    <path d="M-57,-53L33,38L56,-27Z" />
    <path d="M-112,105L-121,-52L-122,187Z" />
    <path d="M509,1006L596,985L534,934Z" />
    <path d="M675,919L760,937L685,848Z" />
    <path d="M905,753L844,667L845,744Z" />
    <path d="M849,-109L746,-114L757,-37Z" />
    <path d="M914,101L901,50L822,119Z" />
    <path d="M1006,21L901,50L914,101Z" />
    <path d="M837,824L905,753L845,744Z" />
    <path d="M852,-52L757,-37L832,25Z" />
    <path d="M990,606L1002,539L906,601Z" />
    <path d="M995,349L1009,298L928,280Z" />
    <path d="M998,428L1009,298L995,349Z" />
    <path d="M1002,539L1009,298L998,428Z" />
    <path d="M1005,674L990,606L939,689Z" />
    <path d="M939,689L990,606L906,601Z" />
    <path d="M-139,682L-126,769L-42,689Z" />
    <path d="M-32,936L40,930L-31,851Z" />
    <path d="M-31,851L40,930L58,848Z" />
    <path d="M134,1004L210,929L131,915Z" />
    <path d="M281,997L202,1009L424,1012Z" />
    <path d="M29,-125L-57,-53L56,-27Z" />
    <path d="M121,-137L29,-125L56,-27Z" />
    <path d="M901,50L852,-52L832,25Z" />
    <path d="M673,1018L760,937L675,919Z" />
    <path d="M837,824L933,824L905,753Z" />
    <path d="M40,930L134,1004L131,915Z" />
    <path d="M1009,298L1018,203L928,280Z" />
    <path d="M938,-112L849,-109L852,-52Z" />
    <path d="M1002,539L1018,203L1009,298Z" />
    <path d="M1018,203L997,125L914,202Z" />
    <path d="M1002,539L1005,674L1018,203Z" />
    <path d="M990,606L1005,674L1002,539Z" />
    <path d="M982,759L1005,674L939,689Z" />
    <path d="M982,759L939,689L905,753Z" />
    <path d="M-126,769L-116,844L-47,776Z" />
    <path d="M40,930L37,1003L134,1004Z" />
    <path d="M-113,909L-116,844L-126,1013Z" />
    <path d="M596,985L673,1018L675,919Z" />
    <path d="M509,1006L673,1018L596,985Z" />
    <path d="M424,1012L673,1018L509,1006Z" />
    <path d="M-126,1013L673,1018L424,1012Z" />
    <path d="M-113,909L-32,936L-31,851Z" />
    <path d="M-57,-53L-121,-52L-108,36Z" />
    <path d="M-108,36L-121,-52L-112,105Z" />
    <path d="M-122,187L-121,-52L-126,283Z" />
    <path d="M-126,283L-122,-111L-139,682Z" />
    <path d="M-122,-111L-121,-52L-57,-53Z" />
    <path d="M760,937L853,907L769,837Z" />
    <path d="M823,1004L853,907L760,937Z" />
    <path d="M928,-40L852,-52L901,50Z" />
    <path d="M852,-52L849,-109L757,-37Z" />
    <path d="M746,-114L997,-136L667,-126Z" />
    <path d="M29,-125L-43,-131L-57,-53Z" />
    <path d="M121,-137L-43,-131L29,-125Z" />
    <path d="M853,907L933,824L837,824Z" />
    <path d="M933,824L982,759L905,753Z" />
    <path d="M1006,21L928,-40L901,50Z" />
    <path d="M-22,990L37,1003L40,930Z" />
    <path d="M134,1004L37,1003L202,1009Z" />
    <path d="M-116,844L-113,909L-31,851Z" />
    <path d="M-32,936L-22,990L40,930Z" />
    <path d="M-126,1013L-116,844L-126,769Z" />
    <path d="M673,1018L753,1018L760,937Z" />
    <path d="M933,929L987,826L933,824Z" />
    <path d="M-126,1013L-22,990L-32,936Z" />
    <path d="M997,125L1006,21L914,101Z" />
    <path d="M928,-40L938,-112L852,-52Z" />
    <path d="M1018,203L1006,21L997,125Z" />
    <path d="M-121,-52L-122,-111L-126,283Z" />
    <path d="M-43,-131L-122,-111L-57,-53Z" />
    <path d="M933,929L933,824L853,907Z" />
    <path d="M933,824L987,826L982,759Z" />
    <path d="M982,759L987,826L1005,674Z" />
    <path d="M753,1018L823,1004L760,937Z" />
    <path d="M1018,-33L938,-112L928,-40Z" />
    <path d="M849,-109L997,-136L746,-114Z" />
    <path d="M930,983L933,929L853,907Z" />
    <path d="M1018,203L1018,-33L1006,21Z" />
    <path d="M1006,21L1018,-33L928,-40Z" />
    <path d="M823,1004L930,983L853,907Z" />
    <path d="M933,929L1012,904L987,826Z" />
    <path d="M1006,981L930,983L823,1004Z" />
    <path d="M1006,981L1012,904L933,929Z" />
    <path d="M987,826L1012,904L1005,674Z" />
    <path d="M1005,674L1012,904L1018,203Z" />
    <path d="M-22,990L-126,1013L37,1003Z" />
    <path d="M37,1003L-126,1013L202,1009Z" />
    <path d="M202,1009L-126,1013L424,1012Z" />
    <path d="M-113,909L-126,1013L-32,936Z" />
    <path d="M-139,682L-126,1013L-126,769Z" />
    <path d="M1018,-33L997,-136L938,-112Z" />
    <path d="M938,-112L997,-136L849,-109Z" />
    <path d="M667,-126L997,-136L272,-135Z" />
    <path d="M272,-135L997,-136L121,-137Z" />
    <path d="M930,983L1006,981L933,929Z" />
    <path d="M753,1018L1006,981L823,1004Z" />>
</svg>