<svg preserveAspectRatio="xMaxYMax slice" viewBox="0 0 800 800"><style>.a{fill:#fefdfc}.b{fill:#f8f3f0}.c{fill:#fbf8f6}.d{fill:#ede0d8}.e{fill:#ebdcd4}.f{fill:#f7f2ee}.g{fill:#f5eee9}.h{fill:#f4ece7}.i{fill:#f9f4f1}.j{fill:#eee1d9}.k{fill:#ecded5}.l{fill:#f0e4dd}.m{fill:#f1e7e1}.n{fill:#fcfaf8}.o{fill: #faf6f4}.p{fill:#efe2db}.q{fill:#f2e8e2}</style><g><circle cx="103.5" cy="34.5" r="11.3" class="a" fill="#"/><circle cx="172.5" cy="34.5" r="15.7" class="a"/><circle cx="310.5" cy="34.5" r="24.6" class="c"/><circle cx="517.5" cy="34.5" r="34.5" class="c"/><circle cx="586.5" cy="34.5" r="34.5" class="e"/><circle cx="655.5" cy="34.5" r="33.4" class="g"/><circle cx="724.5" cy="34.5" r="29" class="f"/><circle cx="793.5" cy="34.5" r="24.6" class="g"/><circle cx="1000.5" cy="34.5" r="11.3" class="i"/><circle cx="172.5" cy="103.5" r="15.7" class="h"/><circle cx="298.2" cy="91.2" r="12.3" class="j"/><circle cx="322.8" cy="91.2" r="12.3" class="k"/><circle cx="322.8" cy="115.8" r="12.3" class="i"/><circle cx="379.5" cy="103.5" r="29" class="h"/><circle cx="431.8" cy="86.8" r="16.7" class="k"/><circle cx="465.2" cy="86.8" r="16.7" class="m"/><circle cx="431.8" cy="120.2" r="16.7" class="n"/><circle cx="465.2" cy="120.2" r="16.7" class="j"/><circle cx="517.5" cy="103.5" r="34.5" class="g"/><circle cx="586.5" cy="103.5" r="34.5" class="g"/><circle cx="655.5" cy="103.5" r="33.4" class="k"/><circle cx="931.5" cy="103.5" r="15.7" class="c"/><circle cx="1000.5" cy="103.5" r="11.3" class="a"/><circle cx="379.5" cy="172.5" r="29" class="b"/><circle cx="448.5" cy="172.5" r="33.4" class="n"/><circle cx="517.5" cy="172.5" r="34.5" class="m"/><circle cx="586.5" cy="172.5" r="34.5" class="c"/><circle cx="655.5" cy="172.5" r="33.4" class="d"/><circle cx="724.5" cy="172.5" r="29" class="m"/><circle cx="805.8" cy="184.8" r="12.3" class="h"/><circle cx="852.4" cy="162.4" r="10.1" class="g"/><circle cx="872.6" cy="182.6" r="10.1" class="b"/><circle cx="241.5" cy="241.5" r="20.1" class="j"/><circle cx="298.2" cy="229.2" r="12.3" class="f"/><circle cx="298.2" cy="253.8" r="12.3" class="c"/><circle cx="322.8" cy="253.8" r="12.3" class="m"/><circle cx="379.5" cy="241.5" r="29" class="l"/><circle cx="448.5" cy="241.5" r="33.4" class="g"/><circle cx="517.5" cy="241.5" r="34.5" class="a"/><circle cx="569.3" cy="224.3" r="17.3" class="i"/><circle cx="603.8" cy="224.3" r="17.3" class="f"/><circle cx="569.3" cy="258.8" r="17.3" class="a"/><circle cx="603.8" cy="258.8" r="17.3" class="o"/><circle cx="655.5" cy="241.5" r="33.4" class="l"/><circle cx="724.5" cy="241.5" r="29" class="h"/><circle cx="793.5" cy="241.5" r="24.6" class="a"/><circle cx="172.5" cy="310.5" r="15.7" class="p"/><circle cx="310.5" cy="310.5" r="24.6" class="n"/><circle cx="431.8" cy="293.8" r="16.7" class="h"/><circle cx="465.2" cy="293.8" r="16.7" class="n"/><circle cx="431.8" cy="327.2" r="16.7" class="b"/><circle cx="465.2" cy="327.2" r="16.7" class="d"/><circle cx="500.3" cy="293.3" r="17.3" class="l"/><circle cx="534.8" cy="293.3" r="17.3" class="n"/><circle cx="500.3" cy="327.8" r="17.3" class="b"/><circle cx="534.8" cy="327.8" r="17.3" class="h"/><circle cx="586.5" cy="310.5" r="34.5" class="d"/><circle cx="655.5" cy="310.5" r="33.4" class="b"/><circle cx="724.5" cy="310.5" r="29" class="i"/><circle cx="781.2" cy="298.2" r="12.3" class="h"/><circle cx="805.8" cy="298.2" r="12.3" class="n"/><circle cx="781.2" cy="322.8" r="12.3" class="c"/><circle cx="241.5" cy="379.5" r="20.1" class="f"/><circle cx="448.5" cy="379.5" r="33.4" class="m"/><circle cx="517.5" cy="379.5" r="34.5" class="d"/><circle cx="586.5" cy="379.5" r="34.5" class="d"/><circle cx="655.5" cy="379.5" r="33.4" class="j"/><circle cx="710" cy="365" r="14.5" class="n"/><circle cx="739" cy="365" r="14.5" class="b"/><circle cx="710" cy="394" r="14.5" class="g"/><circle cx="739" cy="394" r="14.5" class="a"/><circle cx="781.2" cy="367.2" r="12.3" class="n"/><circle cx="805.8" cy="367.2" r="12.3" class="d"/><circle cx="939.4" cy="371.6" r="7.9" class="a"/><circle cx="923.6" cy="387.4" r="7.9" class="i"/><circle cx="310.5" cy="448.5" r="24.6" class="d"/><circle cx="431.8" cy="431.8" r="16.7" class="q"/><circle cx="465.2" cy="431.8" r="16.7" class="n"/><circle cx="431.8" cy="465.2" r="16.7" class="a"/><circle cx="465.2" cy="465.2" r="16.7" class="e"/><circle cx="517.5" cy="448.5" r="34.5" class="g"/><circle cx="586.5" cy="448.5" r="34.5" class="b"/><circle cx="655.5" cy="448.5" r="33.4" class="l"/><circle cx="724.5" cy="448.5" r="29" class="h"/><circle cx="793.5" cy="448.5" r="24.6" class="f"/><circle cx="172.5" cy="517.5" r="15.7" class="i"/><circle cx="310.5" cy="517.5" r="24.6" class="c"/><circle cx="379.5" cy="517.5" r="29" class="p"/><circle cx="517.5" cy="517.5" r="34.5" class="k"/><circle cx="586.5" cy="517.5" r="34.5" class="a"/><circle cx="655.5" cy="517.5" r="33.4" class="a"/><circle cx="724.5" cy="517.5" r="29" class="p"/><circle cx="793.5" cy="517.5" r="24.6" class="b"/><circle cx="103.5" cy="586.5" r="11.3" class="h"/><circle cx="241.5" cy="586.5" r="20.1" class="c"/><circle cx="379.5" cy="586.5" r="29" class="k"/><circle cx="448.5" cy="586.5" r="33.4" class="n"/><circle cx="500.3" cy="569.3" r="17.3" class="c"/><circle cx="534.8" cy="569.3" r="17.3" class="b"/><circle cx="500.3" cy="603.8" r="17.3" class="l"/><circle cx="534.8" cy="603.8" r="17.3" class="g"/><circle cx="586.5" cy="586.5" r="34.5" class="d"/><circle cx="638.8" cy="569.8" r="16.7" class="m"/><circle cx="672.2" cy="569.8" r="16.7" class="d"/><circle cx="638.8" cy="603.2" r="16.7" class="f"/><circle cx="672.2" cy="603.2" r="16.7" class="a"/><circle cx="724.5" cy="586.5" r="29" class="n"/><circle cx="781.2" cy="574.2" r="12.3" class="h"/><circle cx="805.8" cy="574.2" r="12.3" class="b"/><circle cx="781.2" cy="598.8" r="12.3" class="k"/><circle cx="862.5" cy="586.5" r="20.1" class="g"/><circle cx="923.6" cy="578.6" r="7.9" class="m"/><circle cx="923.6" cy="594.4" r="7.9" class="b"/><circle cx="939.4" cy="594.4" r="7.9" class="f"/><circle cx="1000.5" cy="586.5" r="11.3" class="e"/><circle cx="448.5" cy="655.5" r="33.4" class="c"/><circle cx="517.5" cy="655.5" r="34.5" class="h"/><circle cx="586.5" cy="655.5" r="34.5" class="m"/><circle cx="655.5" cy="655.5" r="33.4" class="g"/><circle cx="724.5" cy="655.5" r="29" class="p"/><circle cx="793.5" cy="655.5" r="24.6" class="b"/><circle cx="872.6" cy="645.4" r="10.1" class="p"/><circle cx="852.4" cy="665.6" r="10.1" class="q"/><circle cx="241.5" cy="724.5" r="20.1" class="m"/><circle cx="298.2" cy="712.2" r="12.3" class="h"/><circle cx="322.8" cy="712.2" r="12.3" class="m"/><circle cx="322.8" cy="736.8" r="12.3" class="m"/><circle cx="379.5" cy="724.5" r="29" class="h"/><circle cx="517.5" cy="724.5" r="34.5" class="g"/><circle cx="569.3" cy="707.3" r="17.3" class="q"/><circle cx="603.8" cy="707.3" r="17.3" class="a"/><circle cx="569.3" cy="741.8" r="17.3" class="n"/><circle cx="603.8" cy="741.8" r="17.3" class="j"/><circle cx="655.5" cy="724.5" r="33.4" class="q"/><circle cx="724.5" cy="724.5" r="29" class="n"/><circle cx="923.6" cy="732.4" r="7.9" class="i"/><circle cx="939.4" cy="732.4" r="7.9" class="p"/><circle cx="241.5" cy="793.5" r="20.1" class="j"/><circle cx="298.2" cy="781.2" r="12.3" class="a"/><circle cx="322.8" cy="781.2" r="12.3" class="l"/><circle cx="298.2" cy="805.8" r="12.3" class="k"/><circle cx="322.8" cy="805.8" r="12.3" class="i"/><circle cx="379.5" cy="793.5" r="29" class="f"/><circle cx="448.5" cy="793.5" r="33.4" class="d"/><circle cx="517.5" cy="793.5" r="34.5" class="q"/><circle cx="569.3" cy="776.3" r="17.3" class="m"/><circle cx="603.8" cy="776.3" r="17.3" class="i"/><circle cx="569.3" cy="810.8" r="17.3" class="o"/><circle cx="603.8" cy="810.8" r="17.3" class="o"/><circle cx="638.8" cy="776.8" r="16.7" class="f"/><circle cx="672.2" cy="776.8" r="16.7" class="g"/><circle cx="638.8" cy="810.2" r="16.7" class="n"/><circle cx="672.2" cy="810.2" r="16.7" class="a"/><circle cx="781.2" cy="781.2" r="12.3" class="j"/><circle cx="805.8" cy="781.2" r="12.3" class="p"/><circle cx="781.2" cy="805.8" r="12.3" class="o"/><circle cx="862.5" cy="793.5" r="20.1" class="c"/><circle cx="310.5" cy="862.5" r="24.6" class="m"/><circle cx="379.5" cy="862.5" r="29" class="p"/><circle cx="431.8" cy="845.8" r="16.7" class="e"/><circle cx="465.2" cy="845.8" r="16.7" class="g"/><circle cx="431.8" cy="879.2" r="16.7" class="h"/><circle cx="465.2" cy="879.2" r="16.7" class="f"/><circle cx="500.3" cy="845.3" r="17.3" class="b"/><circle cx="534.8" cy="845.3" r="17.3" class="h"/><circle cx="500.3" cy="879.8" r="17.3" class="b"/><circle cx="534.8" cy="879.8" r="17.3" class="e"/><circle cx="569.3" cy="845.3" r="17.3" class="g"/><circle cx="603.8" cy="845.3" r="17.3" class="g"/><circle cx="569.3" cy="879.8" r="17.3" class="b"/><circle cx="603.8" cy="879.8" r="17.3" class="q"/><circle cx="655.5" cy="862.5" r="33.4" class="d"/><circle cx="793.5" cy="862.5" r="24.6" class="b"/><circle cx="862.5" cy="862.5" r="20.1" class="n"/><circle cx="310.5" cy="931.5" r="24.6" class="f"/><circle cx="365" cy="917" r="14.5" class="f"/><circle cx="394" cy="917" r="14.5" class="h"/><circle cx="365" cy="946" r="14.5" class="q"/><circle cx="431.8" cy="914.8" r="16.7" class="g"/><circle cx="465.2" cy="914.8" r="16.7" class="q"/><circle cx="431.8" cy="948.2" r="16.7" class="h"/><circle cx="465.2" cy="948.2" r="16.7" class="b"/><circle cx="517.5" cy="931.5" r="34.5" class="k"/><circle cx="586.5" cy="931.5" r="34.5" class="h"/><circle cx="655.5" cy="931.5" r="33.4" class="c"/><circle cx="724.5" cy="931.5" r="29" class="o"/><circle cx="793.5" cy="931.5" r="24.6" class="h"/><circle cx="852.4" cy="941.6" r="10.1" class="b"/><circle cx="923.6" cy="923.6" r="7.9" class="c"/><circle cx="939.4" cy="923.6" r="7.9" class="f"/><circle cx="923.6" cy="939.4" r="7.9" class="b"/><circle cx="241.5" cy="1000.5" r="20.1" class="a"/><circle cx="448.5" cy="1000.5" r="33.4" class="q"/><circle cx="517.5" cy="1000.5" r="34.5" class="d"/><circle cx="586.5" cy="1000.5" r="34.5" class="j"/><circle cx="655.5" cy="1000.5" r="33.4" class="o"/><circle cx="724.5" cy="1000.5" r="29" class="c"/><circle cx="862.5" cy="1000.5" r="20.1" class="n"/><circle cx="1000.5" cy="1000.5" r="11.3" class="p"/></g></svg>