<?xml version="1.0" standalone="no"?><svg xmlns:xlink="http://www.w3.org/1999/xlink" xmlns="http://www.w3.org/2000/svg" viewBox="0 0 800 800" preserveAspectRatio="xMaxYMax slice"><g transform="scale(0.7729468599033816)"><rect x="0" y="0" width="1035" height="1035" fill="#ffffff"/><circle cx="103.495" cy="34.495" r="11.315" fill="#fefdfc"/><circle cx="172.5" cy="34.5" r="15.73" fill="#fefdfd"/><circle cx="310.505" cy="34.505" r="24.565" fill="#fbf8f6"/><circle cx="517.5" cy="34.5" r="34.5" fill="#fbf9f7"/><circle cx="586.5" cy="34.5" r="34.5" fill="#ebdcd4"/><circle cx="655.495" cy="34.495000000000005" r="33.395" fill="#f5eee9"/><circle cx="724.5" cy="34.5" r="28.98" fill="#f7f2ee"/><circle cx="793.5050000000001" cy="34.505" r="24.565" fill="#f3ebe5"/><circle cx="1000.495" cy="34.495" r="11.315" fill="#f9f4f1"/><circle cx="172.5" cy="103.5" r="15.73" fill="#f4ece7"/><rect x="285.936" y="78.936" width="49.128" height="49.128" fill="#ffffff"/><circle cx="298.21999999999997" cy="91.22" r="12.28" fill="#eee1d9"/><circle cx="322.78" cy="91.22" r="12.28" fill="#ecded5"/><circle cx="322.78" cy="115.78" r="12.28" fill="#f9f4f2"/><circle cx="379.5" cy="103.5" r="28.98" fill="#f4ece7"/><rect x="415.104" y="70.104" width="66.792" height="66.792" fill="#ffffff"/><circle cx="431.8" cy="86.8" r="16.7" fill="#ecddd4"/><circle cx="465.2" cy="86.8" r="16.7" fill="#f1e7e1"/><circle cx="431.8" cy="120.2" r="16.7" fill="#fcfaf8"/><circle cx="465.2" cy="120.2" r="16.7" fill="#eee1d9"/><circle cx="517.5" cy="103.5" r="34.5" fill="#f5eeea"/><circle cx="586.5" cy="103.5" r="34.5" fill="#f6eeea"/><circle cx="655.495" cy="103.495" r="33.395" fill="#ecddd5"/><circle cx="931.5" cy="103.5" r="15.73" fill="#fbf8f6"/><circle cx="1000.495" cy="103.495" r="11.315" fill="#fefdfd"/><circle cx="379.5" cy="172.5" r="28.98" fill="#f8f3f0"/><circle cx="448.495" cy="172.495" r="33.395" fill="#fcfaf8"/><circle cx="517.5" cy="172.5" r="34.5" fill="#f1e7e1"/><circle cx="586.5" cy="172.5" r="34.5" fill="#fbf7f5"/><circle cx="655.495" cy="172.495" r="33.395" fill="#ede0d8"/><circle cx="724.5" cy="172.5" r="28.98" fill="#f2e9e3"/><rect x="768.936" y="147.936" width="49.128" height="49.128" fill="#ffffff"/><circle cx="805.78" cy="184.78" r="12.28" fill="#f4ece7"/><rect x="842.352" y="152.352" width="40.29599999999999" height="40.29599999999999" fill="#ffffff"/><circle cx="852.4250000000001" cy="162.42499999999998" r="10.075" fill="#f6efeb"/><circle cx="872.575" cy="182.575" r="10.075" fill="#f9f5f2"/><circle cx="241.5" cy="241.5" r="20.15" fill="#eee2da"/><rect x="285.936" y="216.936" width="49.128" height="49.128" fill="#ffffff"/><circle cx="298.21999999999997" cy="229.22" r="12.28" fill="#f7f2ee"/><circle cx="298.21999999999997" cy="253.78" r="12.28" fill="#faf5f3"/><circle cx="322.78" cy="253.78" r="12.28" fill="#f1e7e1"/><circle cx="379.5" cy="241.5" r="28.98" fill="#f0e4dd"/><circle cx="448.495" cy="241.495" r="33.395" fill="#f5eeea"/><circle cx="517.5" cy="241.5" r="34.5" fill="#fefdfc"/><rect x="552" y="207" width="69" height="69" fill="#ffffff"/><circle cx="569.25" cy="224.25" r="17.25" fill="#f9f4f1"/><circle cx="603.75" cy="224.25" r="17.25" fill="#f7f2ee"/><circle cx="569.25" cy="258.75" r="17.25" fill="#fefcfc"/><circle cx="603.75" cy="258.75" r="17.25" fill="#faf6f4"/><circle cx="655.495" cy="241.495" r="33.395" fill="#f0e5de"/><circle cx="724.5" cy="241.5" r="28.98" fill="#f4ece7"/><circle cx="793.5050000000001" cy="241.505" r="24.565" fill="#ffffff"/><circle cx="172.5" cy="310.5" r="15.73" fill="#efe2db"/><circle cx="310.505" cy="310.505" r="24.565" fill="#fdfcfb"/><rect x="415.104" y="277.104" width="66.792" height="66.792" fill="#ffffff"/><circle cx="431.8" cy="293.8" r="16.7" fill="#f3eae4"/><circle cx="465.2" cy="293.8" r="16.7" fill="#fdfcfb"/><circle cx="431.8" cy="327.2" r="16.7" fill="#f8f2ef"/><circle cx="465.2" cy="327.2" r="16.7" fill="#ede0d8"/><rect x="483" y="276" width="69" height="69" fill="#ffffff"/><circle cx="500.25" cy="293.25" r="17.25" fill="#f0e4dd"/><circle cx="534.75" cy="293.25" r="17.25" fill="#fdfbfa"/><circle cx="500.25" cy="327.75" r="17.25" fill="#f8f3f0"/><circle cx="534.75" cy="327.75" r="17.25" fill="#f4ebe6"/><circle cx="586.5" cy="310.5" r="34.5" fill="#ede0d8"/><circle cx="655.495" cy="310.495" r="33.395" fill="#f8f3f0"/><circle cx="724.5" cy="310.5" r="28.98" fill="#f9f4f1"/><rect x="768.936" y="285.936" width="49.128" height="49.128" fill="#ffffff"/><circle cx="781.22" cy="298.21999999999997" r="12.28" fill="#f4ebe6"/><circle cx="805.78" cy="298.21999999999997" r="12.28" fill="#fcfaf8"/><circle cx="781.22" cy="322.78" r="12.28" fill="#fbf7f5"/><circle cx="241.5" cy="379.5" r="20.15" fill="#f7f1ee"/><circle cx="448.495" cy="379.495" r="33.395" fill="#f0e5df"/><circle cx="517.5" cy="379.5" r="34.5" fill="#ecded6"/><circle cx="586.5" cy="379.5" r="34.5" fill="#ede0d8"/><circle cx="655.495" cy="379.495" r="33.395" fill="#eee1d9"/><rect x="695.52" y="350.52" width="57.96" height="57.96" fill="#ffffff"/><circle cx="710.01" cy="365.01" r="14.49" fill="#fdfbfa"/><circle cx="738.99" cy="365.01" r="14.49" fill="#f8f3ef"/><circle cx="710.01" cy="393.99" r="14.49" fill="#f5eee9"/><circle cx="738.99" cy="393.99" r="14.49" fill="#fefdfc"/><rect x="768.936" y="354.936" width="49.128" height="49.128" fill="#ffffff"/><circle cx="781.22" cy="367.21999999999997" r="12.28" fill="#fcf9f8"/><circle cx="805.78" cy="367.21999999999997" r="12.28" fill="#ede0d8"/><rect x="915.768" y="363.768" width="31.464000000000006" height="31.464000000000006" fill="#ffffff"/><circle cx="939.365" cy="371.635" r="7.865" fill="#fefefd"/><circle cx="923.635" cy="387.365" r="7.865" fill="#f9f4f2"/><circle cx="310.505" cy="448.505" r="24.565" fill="#ede0d8"/><rect x="415.104" y="415.104" width="66.792" height="66.792" fill="#ffffff"/><circle cx="431.8" cy="431.8" r="16.7" fill="#f2e8e2"/><circle cx="465.2" cy="431.8" r="16.7" fill="#fdfbfa"/><circle cx="431.8" cy="465.2" r="16.7" fill="#ffffff"/><circle cx="465.2" cy="465.2" r="16.7" fill="#ebdcd3"/><circle cx="517.5" cy="448.5" r="34.5" fill="#f5eee9"/><circle cx="586.5" cy="448.5" r="34.5" fill="#f8f2ef"/><circle cx="655.495" cy="448.495" r="33.395" fill="#f0e5de"/><circle cx="724.5" cy="448.5" r="28.98" fill="#f3ebe6"/><circle cx="793.5050000000001" cy="448.505" r="24.565" fill="#f6efea"/><circle cx="172.5" cy="517.5" r="15.73" fill="#f9f4f1"/><circle cx="310.505" cy="517.505" r="24.565" fill="#fbf9f7"/><circle cx="379.5" cy="517.5" r="28.98" fill="#efe3dc"/><circle cx="517.5" cy="517.5" r="34.5" fill="#ecded5"/><circle cx="586.5" cy="517.5" r="34.5" fill="#fefdfd"/><circle cx="655.495" cy="517.495" r="33.395" fill="#ffffff"/><circle cx="724.5" cy="517.5" r="28.98" fill="#efe3dc"/><circle cx="793.5050000000001" cy="517.505" r="24.565" fill="#f9f5f3"/><circle cx="103.495" cy="586.495" r="11.315" fill="#f4ece7"/><circle cx="241.5" cy="586.5" r="20.15" fill="#faf7f4"/><circle cx="379.5" cy="586.5" r="28.98" fill="#ecddd4"/><circle cx="448.495" cy="586.495" r="33.395" fill="#fcfaf8"/><rect x="483" y="552" width="69" height="69" fill="#ffffff"/><circle cx="500.25" cy="569.25" r="17.25" fill="#fbf8f6"/><circle cx="534.75" cy="569.25" r="17.25" fill="#f8f3f0"/><circle cx="500.25" cy="603.75" r="17.25" fill="#f0e5de"/><circle cx="534.75" cy="603.75" r="17.25" fill="#f5ede9"/><circle cx="586.5" cy="586.5" r="34.5" fill="#ecded6"/><rect x="622.104" y="553.104" width="66.792" height="66.792" fill="#ffffff"/><circle cx="638.8000000000001" cy="569.8000000000001" r="16.7" fill="#f1e6df"/><circle cx="672.2" cy="569.8000000000001" r="16.7" fill="#ecded6"/><circle cx="638.8000000000001" cy="603.2" r="16.7" fill="#f7f2ee"/><circle cx="672.2" cy="603.2" r="16.7" fill="#fefefe"/><circle cx="724.5" cy="586.5" r="28.98" fill="#fcfaf8"/><rect x="768.936" y="561.936" width="49.128" height="49.128" fill="#ffffff"/><circle cx="781.22" cy="574.22" r="12.28" fill="#f4ebe6"/><circle cx="805.78" cy="574.22" r="12.28" fill="#f8f4f1"/><circle cx="781.22" cy="598.78" r="12.28" fill="#ecded5"/><circle cx="862.5" cy="586.5" r="20.15" fill="#f5ede9"/><rect x="915.768" y="570.768" width="31.464000000000006" height="31.464000000000006" fill="#ffffff"/><circle cx="923.635" cy="578.635" r="7.865" fill="#f1e7e1"/><circle cx="923.635" cy="594.365" r="7.865" fill="#f9f5f3"/><circle cx="939.365" cy="594.365" r="7.865" fill="#f7f1ee"/><circle cx="1000.495" cy="586.495" r="11.315" fill="#ebdcd3"/><circle cx="448.495" cy="655.495" r="33.395" fill="#fbf7f5"/><circle cx="517.5" cy="655.5" r="34.5" fill="#f4ebe6"/><circle cx="586.5" cy="655.5" r="34.5" fill="#f1e7e1"/><circle cx="655.495" cy="655.495" r="33.395" fill="#f6efeb"/><circle cx="724.5" cy="655.5" r="28.98" fill="#efe2db"/><circle cx="793.5050000000001" cy="655.5050000000001" r="24.565" fill="#f8f3f0"/><rect x="842.352" y="635.352" width="40.29599999999999" height="40.29599999999999" fill="#ffffff"/><circle cx="872.575" cy="645.4250000000001" r="10.075" fill="#efe3dc"/><circle cx="852.4250000000001" cy="665.575" r="10.075" fill="#f2e8e2"/><rect x="156.768" y="708.768" width="31.464000000000006" height="31.464000000000006" fill="#ffffff"/><circle cx="241.5" cy="724.5" r="20.15" fill="#f1e6e0"/><rect x="285.936" y="699.936" width="49.128" height="49.128" fill="#ffffff"/><circle cx="298.21999999999997" cy="712.22" r="12.28" fill="#f4ebe6"/><circle cx="322.78" cy="712.22" r="12.28" fill="#f1e7e1"/><circle cx="322.78" cy="736.78" r="12.28" fill="#f1e6e0"/><circle cx="379.5" cy="724.5" r="28.98" fill="#f4ece7"/><circle cx="517.5" cy="724.5" r="34.5" fill="#f5eeea"/><rect x="552" y="690" width="69" height="69" fill="#ffffff"/><circle cx="569.25" cy="707.25" r="17.25" fill="#f2e8e2"/><circle cx="603.75" cy="707.25" r="17.25" fill="#fefefe"/><circle cx="569.25" cy="741.75" r="17.25" fill="#fdfbfa"/><circle cx="603.75" cy="741.75" r="17.25" fill="#eee1da"/><circle cx="655.495" cy="724.495" r="33.395" fill="#f2e8e2"/><circle cx="724.5" cy="724.5" r="28.98" fill="#fcf9f8"/><rect x="915.768" y="708.768" width="31.464000000000006" height="31.464000000000006" fill="#ffffff"/><circle cx="923.635" cy="732.365" r="7.865" fill="#f9f4f1"/><circle cx="939.365" cy="732.365" r="7.865" fill="#efe3dc"/><circle cx="241.5" cy="793.5" r="20.15" fill="#eee2da"/><rect x="285.936" y="768.936" width="49.128" height="49.128" fill="#ffffff"/><circle cx="298.21999999999997" cy="781.22" r="12.28" fill="#fffffe"/><circle cx="322.78" cy="781.22" r="12.28" fill="#f0e4dd"/><circle cx="298.21999999999997" cy="805.78" r="12.28" fill="#ecddd4"/><circle cx="322.78" cy="805.78" r="12.28" fill="#f9f4f2"/><circle cx="379.5" cy="793.5" r="28.98" fill="#f6f0ec"/><circle cx="448.495" cy="793.495" r="33.395" fill="#ede0d8"/><circle cx="517.5" cy="793.5" r="34.5" fill="#f2e8e2"/><rect x="552" y="759" width="69" height="69" fill="#ffffff"/><circle cx="569.25" cy="776.25" r="17.25" fill="#f1e6df"/><circle cx="603.75" cy="776.25" r="17.25" fill="#f9f4f2"/><circle cx="569.25" cy="810.75" r="17.25" fill="#faf7f5"/><circle cx="603.75" cy="810.75" r="17.25" fill="#faf6f3"/><rect x="622.104" y="760.104" width="66.792" height="66.792" fill="#ffffff"/><circle cx="638.8000000000001" cy="776.8000000000001" r="16.7" fill="#f7f1ed"/><circle cx="672.2" cy="776.8000000000001" r="16.7" fill="#f5ede9"/><circle cx="638.8000000000001" cy="810.2" r="16.7" fill="#fdfcfc"/><circle cx="672.2" cy="810.2" r="16.7" fill="#fefdfc"/><rect x="768.936" y="768.936" width="49.128" height="49.128" fill="#ffffff"/><circle cx="781.22" cy="781.22" r="12.28" fill="#eee2da"/><circle cx="805.78" cy="781.22" r="12.28" fill="#efe3db"/><circle cx="781.22" cy="805.78" r="12.28" fill="#faf6f4"/><circle cx="862.5" cy="793.5" r="20.15" fill="#fbf8f6"/><circle cx="310.505" cy="862.5050000000001" r="24.565" fill="#f2e9e3"/><circle cx="379.5" cy="862.5" r="28.98" fill="#efe3dc"/><rect x="415.104" y="829.104" width="66.792" height="66.792" fill="#ffffff"/><circle cx="431.8" cy="845.8000000000001" r="16.7" fill="#ebdcd4"/><circle cx="465.2" cy="845.8000000000001" r="16.7" fill="#f5eee9"/><circle cx="431.8" cy="879.2" r="16.7" fill="#f4ebe6"/><circle cx="465.2" cy="879.2" r="16.7" fill="#f7f0ed"/><rect x="483" y="828" width="69" height="69" fill="#ffffff"/><circle cx="500.25" cy="845.25" r="17.25" fill="#f9f5f3"/><circle cx="534.75" cy="845.25" r="17.25" fill="#f4ece7"/><circle cx="500.25" cy="879.75" r="17.25" fill="#f9f5f3"/><circle cx="534.75" cy="879.75" r="17.25" fill="#ebdcd4"/><rect x="552" y="828" width="69" height="69" fill="#ffffff"/><circle cx="569.25" cy="845.25" r="17.25" fill="#f5ede8"/><circle cx="603.75" cy="845.25" r="17.25" fill="#f6efeb"/><circle cx="569.25" cy="879.75" r="17.25" fill="#f8f2ef"/><circle cx="603.75" cy="879.75" r="17.25" fill="#f2e8e2"/><circle cx="655.495" cy="862.495" r="33.395" fill="#eddfd7"/><circle cx="793.5050000000001" cy="862.5050000000001" r="24.565" fill="#f8f3f0"/><circle cx="862.5" cy="862.5" r="20.15" fill="#fcf9f8"/><circle cx="310.505" cy="931.5050000000001" r="24.565" fill="#f7f1ed"/><rect x="350.52" y="902.52" width="57.96" height="57.96" fill="#ffffff"/><circle cx="365.01" cy="917.01" r="14.49" fill="#f6efea"/><circle cx="393.99" cy="917.01" r="14.49" fill="#f4ebe6"/><circle cx="365.01" cy="945.99" r="14.49" fill="#f2e8e3"/><rect x="415.104" y="898.104" width="66.792" height="66.792" fill="#ffffff"/><circle cx="431.8" cy="914.8000000000001" r="16.7" fill="#f6efeb"/><circle cx="465.2" cy="914.8000000000001" r="16.7" fill="#f2e8e2"/><circle cx="431.8" cy="948.2" r="16.7" fill="#f4ece7"/><circle cx="465.2" cy="948.2" r="16.7" fill="#f8f3f1"/><circle cx="517.5" cy="931.5" r="34.5" fill="#ecddd5"/><circle cx="586.5" cy="931.5" r="34.5" fill="#f4ece7"/><circle cx="655.495" cy="931.495" r="33.395" fill="#fbf7f6"/><circle cx="724.5" cy="931.5" r="28.98" fill="#faf6f4"/><circle cx="793.5050000000001" cy="931.5050000000001" r="24.565" fill="#f4ece8"/><rect x="842.352" y="911.352" width="40.29599999999999" height="40.29599999999999" fill="#ffffff"/><circle cx="852.4250000000001" cy="941.575" r="10.075" fill="#f9f5f2"/><rect x="915.768" y="915.768" width="31.464000000000006" height="31.464000000000006" fill="#ffffff"/><circle cx="923.635" cy="923.635" r="7.865" fill="#fbf9f7"/><circle cx="939.365" cy="923.635" r="7.865" fill="#f6f0ec"/><circle cx="923.635" cy="939.365" r="7.865" fill="#f8f3f0"/><circle cx="241.5" cy="1000.5" r="20.15" fill="#fffefe"/><circle cx="448.495" cy="1000.495" r="33.395" fill="#f3eae5"/><circle cx="517.5" cy="1000.5" r="34.5" fill="#ede0d8"/><circle cx="586.5" cy="1000.5" r="34.5" fill="#eee2da"/><circle cx="655.495" cy="1000.495" r="33.395" fill="#faf6f3"/><circle cx="724.5" cy="1000.5" r="28.98" fill="#fbf7f6"/><circle cx="862.5" cy="1000.5" r="20.15" fill="#fcfaf8"/><circle cx="1000.495" cy="1000.495" r="11.315" fill="#efe4dc"/></g></svg>